<svg xmlns="http://www.w3.org/2000/svg" xmlns:xlink="http://www.w3.org/1999/xlink" width="4713" height="581" viewBox="0 0 4713 581">
  <defs>
    <clipPath id="clip-Logo-linkbay">
      <rect width="4713" height="581"/>
    </clipPath>
  </defs>
  <g id="Logo-linkbay" clip-path="url(#clip-Logo-linkbay)">
    <g id="LINKBAY" transform="translate(75.441 66.605)">
      <path id="Tracciato_131" data-name="Tracciato 131" d="M327.684,424.377c-8.335-2.218-15.682-5.225-23.319-6.524-42.017-7.146-78.525-26.346-108.789-55.138a162.409,162.409,0,0,1-48.582-91.27c-2.97-17.25-5.245-34.7-6.486-52.149-2.044-28.732,4.264-56.26,14.265-83.677,18.1,0,36.021-.566,53.884.16,17.565.714,35.656-3.812,53.879,4.71-3.839,7.107-8.927,13.481-10.843,20.7-4.149,15.631-9.691,31.772-9.281,47.564,1.088,41.931,15.772,88.335,66.63,106.043,15.823,5.51,33.589,7.38,50.493,7.515,88.806.712,177.622.545,266.432.214,29.488-.11,58.014-7.58,80.424-26.488A88.075,88.075,0,0,0,737.182,240.7c3.331-22.507,3.211-43.95-3.125-65.793-10.856-37.424-38.675-56.16-73.692-64.149-19.864-4.532-41.17-3.272-61.843-3.6-31.569-.506-63.152-.133-95.393-.133-5.381-23.123-16.24-43.358-32.955-59.5-16.263-15.71-34.23-29.655-52.227-45.039h11.945c63.193,0,126.4-.708,189.575.243,43.813.659,86.085,9.742,124.971,31.1C791.506,59.668,823.2,97.79,834.607,150.845c4.627,21.513,9.182,43.607,9.14,65.427-.064,32.933-5.031,66.274-19.93,95.864-25.441,50.528-66.374,84.093-121.466,99.21-14.748,4.047-29.707,7.326-44.8,11.994-1.369,1.036-2.508,1.036-5.243.266-3.253-1.087-4.909-1.681-6.565-1.682q-152.182-.074-304.364.049c-3.143,0-6.285,1.567-9.427,2.4Z" transform="translate(217.305 1.908)"/>
      <path id="Tracciato_132" data-name="Tracciato 132" d="M492.654,3.915c50.975.021,97.2,16.261,137.5,46.093,25.289,18.722,43.622,44.3,56.156,74.535,15.193,36.655,16.615,74.329,14.806,112.5-.757,15.972-5.882,31.822-10.026,47.461-.656,2.474-6.634,4.981-10.179,5.021-33.634.378-67.275.225-100.863.225,4.753-12.224,9.745-23.893,13.861-35.863,14.521-42.231,5.8-81.712-20.993-115.148-13.206-16.478-32.833-29.682-57.174-29.886-105.6-.885-211.19-2.547-316.787-2.779-39.365-.086-83.869,34.382-92.79,71.957-3.828,16.122-1.737,33.859-.923,50.794a103.1,103.1,0,0,0,5.928,30.273c11.111,30.17,34.926,46.96,64.452,55.7a160.629,160.629,0,0,0,41.83,6.385c40.09.83,80.208.292,121.757.292,12.943,45.506,44.578,75.818,86.518,100.676-5.83.34-9.257.713-12.684.715-71.7.034-143.443,1.454-215.087-.564-37.07-1.044-72.231-12.755-104.946-31.973-31.819-18.691-56.519-43.646-71.921-76.531-8.471-18.086-11.908-38.529-18.4-59.769-.779-28.345-.778-54.83.011-81.985,4.386-35.621,17.545-67.019,40.126-93.412C84.218,30.259,138.732,8.232,201.395,4.276c2.711-.171,5.308-2.143,7.957-3.276a15.58,15.58,0,0,1,5.012.771,102.941,102.941,0,0,0,16.76,1.695Q361.889,3.754,492.654,3.915Z" transform="translate(1.728 0)"/>
      <path id="Tracciato_134" data-name="Tracciato 134" d="M215.469,168.519c1.942-.836,5.083-2.4,8.226-2.4q152.182-.184,304.364-.049c1.656,0,3.312.595,5.711,1.682C428.565,168.519,322.617,168.519,215.469,168.519Z" transform="translate(334.991 257.766)"/>
      <path id="Tracciato_135" data-name="Tracciato 135" d="M362.694,3.076c-87.146.7-174.323.582-261.5.39A85.638,85.638,0,0,1,85.29,1.771C176.831,1,269.115,1,362.6,1,363.422,1.412,363.043,1.824,362.694,3.076Z" transform="translate(131.657 0)"/>
      <path id="Tracciato_136" data-name="Tracciato 136" d="M1,69.214c.441-1.229.882-1.258,1.982-1.209.657,26.563.656,53.049.653,80.731-.439,1.25-.877,1.3-1.975,1.309C1,123.469,1,96.941,1,69.214Z" transform="translate(0 104.638)"/>
      <path id="Tracciato_137" data-name="Tracciato 137" d="M1347.01,29.231c-.562,1.054-1.125,1.01-2.519-.291a78.3,78.3,0,0,1-.771-13.344,16.261,16.261,0,0,1,2.45-.569C1347.01,19.349,1347.01,23.741,1347.01,29.231Z" transform="translate(2097.261 21.91)"/>
      <path id="Tracciato_138" data-name="Tracciato 138" d="M1203,395.2c-27.168.02-53.094.02-80.572.02,0-5.82,0-10.392,0-14.963,0-101.145-.3-202.291.184-303.433.145-30.244,24.347-59.3,60.272-62.1,26.822-2.085,53.722-4.865,80.318-3.13,23.174,1.511,47.835,3.711,66.579,20.54,4.767,4.28,6.773,12.157,8.889,18.754,3.468,10.815,8.447,21.917,8.521,32.927.659,98.58.384,197.165.384,295.749v14.751H1260.93V272.94h-51.382v32.018c0,26.46.2,52.923-.237,79.375-.06,3.641-3.3,7.228-6.312,10.861m57.851-299.836c.781-8.278-.8-16.541-10.113-17.463-13.292-1.316-26.812-.335-40.479-.335V204.7h50.592C1260.849,168.383,1260.849,133.035,1260.849,95.359Z" transform="translate(1751.476 15.696)"/>
      <path id="Tracciato_139" data-name="Tracciato 139" d="M1194.876,369.024c-12.126,15.074-26.5,20.812-45.362,20.413-49.043-1.037-98.123-.348-147.188-.348H988.874V15.078h12.834c50.772,0,101.552-.462,152.307.447,8.618.154,17.933,4.93,25.542,9.753,23.194,14.7,27.852,38.463,28.633,63.61.2,6.394-.231,12.811.074,19.2,1.409,29.41-.7,57.685-25.715,79.024,15.645,5.351,21.813,16.781,25.735,30.4,10.674,37.071,4.148,74.931,4.118,112.323-.01,12.879-10.862,25.75-17.527,39.191M1076.612,231.016c-.577,21.552-1.242,43.1-1.693,64.656-.219,10.435-.038,20.879-.038,32.076,14.294,0,26.595.269,38.877-.092,8.565-.252,12.7-5.218,12.671-13.874q-.125-34.444,0-68.889c.037-9.8-4.392-14.883-14.43-14.779-11.055.115-22.111.089-35.387.9m-1.747-134.932v74.688l45.531-6.079V76.911h-45.53C1074.866,82.814,1074.866,88.219,1074.865,96.084Z" transform="translate(1543.017 21.807)"/>
      <path id="Tracciato_140" data-name="Tracciato 140" d="M943.274,95.951V394.685H856.153V379.714q0-141.467-.006-282.933c0-17.019-1.994-18.945-19.284-18.972-3.841-.006-7.685.115-11.521-.022-10.646-.381-15.451,4.689-15.347,15.321.2,20.482.058,40.967.058,61.451V379.881c0,4.6,0,9.207,0,14.7H723.6c-.219-4.374-.638-8.854-.639-13.333-.037-101.566-.98-203.146.508-304.69.495-33.749,17.444-55.829,59.349-61.177C808.5,12.107,834.17,9.215,859.313,12c23.7,2.624,51.276.959,66.891,25.791a106.6,106.6,0,0,1,11.689,26.564C940.763,74.153,941.568,84.557,943.274,95.951Z" transform="translate(1127.157 15.431)"/>
      <path id="Tracciato_141" data-name="Tracciato 141" d="M1017,15c24.254,0,47.3,0,71.593,0,2.734,13.874-5.087,24.641-9.24,36.152-4.835,13.4-10.285,26.582-15.165,39.969-7.109,19.5-11.653,40.351-21.431,58.381-15.293,28.2-10.58,53.514,2.445,80.282,7.783,15.995,12.662,33.4,18.878,50.161,2.816,7.595,5.763,15.141,8.553,22.746q11.16,30.423,22.242,60.874c2.922,7.98,5.924,15.931,9.479,25.478-29.074,0-57.1.574-85.053-.64-4.032-.175-9.027-8.393-11.287-13.838-8.723-21.015-16.783-42.319-24.575-63.7-6-16.459-11.083-33.249-16.877-49.786-1.756-5.013-4.521-9.672-7.059-14.987H941.627v142.1H855.041V15.747h85.95V168.112h13.041c7.329-19.393,14.591-37.952,21.349-56.692,5.948-16.495,11.2-33.239,17.005-49.787,5.264-15.01,10.714-29.961,16.55-44.754C1009.458,15.557,1013.424,15.6,1017,15Z" transform="translate(1333.976 21.863)"/>
      <path id="Tracciato_142" data-name="Tracciato 142" d="M1491.258,15.487c1.115,4.248,1.1,8.278,1.1,13.317-3.017,7.977-6.53,14.78-9.009,21.941q-12.778,36.915-24.939,74.044c-7.166,21.717-13.761,43.627-21.178,65.256-6.069,17.7-13.138,35.051-19.376,52.695-1.223,3.46-.9,7.546-.906,11.344-.055,44.337-.035,88.675-.035,134.024H1330.35c-.2-4.513-.541-8.666-.546-12.819-.043-34.563,1.295-69.2-.58-103.658-.939-17.26-7.2-34.346-12-51.241-3.55-12.494-8.657-24.544-13.022-36.809q-9.016-25.332-17.951-50.693-6.482-18.446-12.8-36.947-9.67-28.276-19.248-56.584c-1.976-5.8-4.67-11.468-5.656-17.426-.316-1.911,3.755-6.518,5.888-6.562,23.032-.481,46.087-.635,69.109.052,3.676.11,9.28,4.1,10.452,7.508,4.506,13.112,7.307,26.8,11.245,40.122,4.608,15.59,9.9,30.977,14.593,46.542,3.89,12.885,7.352,25.9,11.107,40.636,1.492,1.382,2.881.982,4.27.582,4.974-18.443,10.08-36.852,14.879-55.341,4-15.4,7.276-30.991,11.549-46.31,3.159-11.324,7.4-22.344,11.3-33.893C1439.214,15.268,1464.668,15.268,1491.258,15.487Z" transform="translate(1948.587 21.8)"/>
      <path id="Tracciato_143" data-name="Tracciato 143" d="M706.356,349.94v37.587h-173V15.447h85.792V315.9h87.211Z" transform="translate(831.511 22.565)"/>
      <path id="Tracciato_144" data-name="Tracciato 144" d="M640.872,198.924c0-61.753,0-122.224,0-183.58h86.073V387.621H640.872Z" transform="translate(999.452 22.405)"/>
      <path id="Tracciato_145" data-name="Tracciato 145" d="M1299.786,67.979a3.763,3.763,0,0,1-3.379.588C1297.417,67.755,1298.281,67.763,1299.786,67.979Z" transform="translate(2023.371 104.424)"/>
    </g>
    <path id="Tracciato_160" data-name="Tracciato 160" d="M155.716,0H649.172A155.716,155.716,0,0,1,804.888,155.716v117.32A155.716,155.716,0,0,1,649.172,428.752H155.716A155.716,155.716,0,0,1,0,273.036V155.716A155.716,155.716,0,0,1,155.716,0Z" transform="translate(3776.556 76.124)" fill="#ff5758"/>
    <text id="CMS" transform="translate(3915 377.5)" font-size="230" font-family="HelveticaNeue-BoldItalic, Helvetica Neue" font-weight="700" font-style="italic"><tspan x="0" y="0">CMS</tspan></text>
  </g>
</svg>
